<svg width="50" height="50" viewBox="0 0 50 50" fill="none" xmlns="http://www.w3.org/2000/svg">
<path fill-rule="evenodd" clip-rule="evenodd" d="M18.7324 26.9531H24.7367C23.7031 23.4375 22.6851 20.1875 21.6835 16.8844C20.7117 20.1992 19.7257 23.4375 18.7324 26.9531ZM48.4812 0.390625H1.12221C0.268305 0.390625 0.390571 0.576563 0.390571 1.40039V48.8199C0.390571 49.643 0.268305 49.6094 1.06206 49.6094H48.5414C49.3347 49.6094 49.6093 49.643 49.6093 48.8195V1.46055C49.6093 0.576563 49.3351 0.390625 48.4812 0.390625ZM30.1945 37.5C29.555 37.5 28.9132 37.448 28.2769 37.4938C27.8179 37.5281 27.6644 37.3352 27.5421 36.9367C26.9507 35.0105 26.3222 33.0852 25.7304 31.1594C25.6113 30.7719 25.441 30.6305 25.021 30.6355C22.8636 30.6605 20.705 30.6582 18.5472 30.6328C18.0929 30.6273 17.8839 30.7484 17.7542 31.1992C17.205 33.1148 16.6042 35.0148 16.0492 36.9285C15.9289 37.3434 15.746 37.4883 15.3054 37.477C14.0093 37.4445 12.7113 37.4645 11.2921 37.4645C11.6667 36.275 12.0066 35.175 12.3581 34.0797C14.5121 27.3609 16.6734 20.6422 18.8117 13.9191C18.9609 13.4512 19.1683 13.307 19.6488 13.3176C21.1667 13.3512 22.6859 13.3262 24.2046 13.3176C24.4886 13.3156 24.6824 13.3324 24.7863 13.6551C27.3273 21.5129 29.8773 29.4191 32.4249 37.2762C32.4359 37.3117 32.4289 37.5 32.4347 37.5H30.1945V37.5ZM38.2812 37.5H33.5937V19.9219H38.2812V37.5ZM35.8007 17.5504C34.3691 17.5484 33.3441 16.5629 33.3343 15.1793C33.3249 13.7996 34.3917 12.7734 35.8367 12.7719C37.2929 12.7703 38.3191 13.7629 38.3304 15.1824C38.3406 16.5672 37.2886 17.5527 35.8007 17.5504V17.5504Z" fill="#29382B"/>
</svg>
