<svg width="48" height="48" viewBox="0 0 48 48" fill="none" xmlns="http://www.w3.org/2000/svg">
<path d="M44.1406 0.000180469H3.51562C2.59387 -0.00920031 1.70604 0.347463 1.04695 0.991911C0.387855 1.63636 0.0113325 2.51595 0 3.43768V44.2267C0.013382 45.1471 0.390805 46.0247 1.04968 46.6675C1.70855 47.3102 2.59521 47.6658 3.51562 47.6564H44.1406C45.0624 47.6637 45.9497 47.3059 46.6084 46.661C47.2672 46.0162 47.6439 45.1368 47.6562 44.215V3.42596C47.6398 2.50693 47.2613 1.63154 46.603 0.990046C45.9447 0.348558 45.0598 -0.00717174 44.1406 0.000180469V0.000180469ZM14.1289 40.6252H7.05469V17.8635H14.1289V40.6252ZM10.6133 14.7619C9.8019 14.7627 9.00852 14.5228 8.33351 14.0726C7.6585 13.6223 7.13218 12.982 6.82115 12.2326C6.51011 11.4832 6.42833 10.6584 6.58615 9.86256C6.74397 9.06668 7.13429 8.33548 7.70775 7.76148C8.28121 7.18747 9.01203 6.79645 9.80776 6.63787C10.6035 6.4793 11.4284 6.56029 12.1781 6.87061C12.9278 7.18094 13.5686 7.70664 14.0194 8.38122C14.4703 9.05581 14.7109 9.84896 14.7109 10.6603C14.7099 11.1996 14.6026 11.7334 14.395 12.2312C14.1874 12.7289 13.8838 13.1808 13.5013 13.5611C13.1189 13.9413 12.6653 14.2424 12.1663 14.4471C11.6674 14.6518 11.133 14.7561 10.5938 14.7541L10.6133 14.7619ZM40.625 40.6252H33.5508V29.551C33.5508 26.9142 33.5039 23.5197 29.875 23.5197C26.2461 23.5197 25.6289 26.3947 25.6289 29.3791V40.6252H18.5664V17.8635H25.3477V20.9885H25.4414C26.3867 19.1994 28.6914 17.3127 32.1328 17.3127C39.2969 17.2971 40.625 22.0119 40.625 28.1252V40.6252Z" fill="black"/>
</svg>
