<svg width="327" height="107" viewBox="0 0 327 107" fill="none" xmlns="http://www.w3.org/2000/svg">
<path d="M60.5866 103C60.4532 103 60.3466 102.96 60.2666 102.88C60.1866 102.8 60.1466 102.693 60.1466 102.56V89.22C60.1466 89.0733 60.1799 88.9667 60.2466 88.9C60.3266 88.82 60.4332 88.78 60.5666 88.78C60.6999 88.78 60.7999 88.82 60.8666 88.9C60.9466 88.9667 60.9866 89.0733 60.9866 89.22V102.22H68.1866C68.3332 102.22 68.4399 102.253 68.5066 102.32C68.5866 102.387 68.6266 102.48 68.6266 102.6C68.6266 102.733 68.5866 102.833 68.5066 102.9C68.4399 102.967 68.3332 103 68.1866 103H60.5866ZM74.3958 103.16C73.4358 103.16 72.6091 102.96 71.9158 102.56C71.2224 102.16 70.6824 101.593 70.2958 100.86C69.9224 100.113 69.7358 99.2267 69.7358 98.2C69.7358 97.1867 69.9224 96.3067 70.2958 95.56C70.6824 94.8 71.2091 94.2133 71.8758 93.8C72.5558 93.3733 73.3358 93.16 74.2158 93.16C74.8424 93.16 75.3958 93.2667 75.8758 93.48C76.3691 93.6933 76.7824 94 77.1158 94.4C77.4624 94.8 77.7224 95.2867 77.8958 95.86C78.0824 96.4333 78.1758 97.08 78.1758 97.8C78.1758 97.9733 78.1358 98.1067 78.0558 98.2C77.9891 98.28 77.8824 98.32 77.7358 98.32H70.2758V97.58H77.7358L77.3958 97.82C77.3958 97.0067 77.2758 96.3133 77.0358 95.74C76.7958 95.1533 76.4358 94.7067 75.9558 94.4C75.4891 94.08 74.9024 93.92 74.1958 93.92C73.4224 93.92 72.7624 94.1067 72.2158 94.48C71.6824 94.84 71.2758 95.3333 70.9958 95.96C70.7291 96.5867 70.5958 97.3 70.5958 98.1V98.2C70.5958 99.5333 70.9224 100.567 71.5758 101.3C72.2424 102.02 73.1691 102.38 74.3558 102.38C74.8891 102.38 75.3891 102.313 75.8558 102.18C76.3224 102.033 76.7824 101.78 77.2358 101.42C77.3291 101.34 77.4224 101.3 77.5158 101.3C77.6224 101.287 77.7091 101.307 77.7758 101.36C77.8558 101.4 77.9091 101.46 77.9358 101.54C77.9758 101.607 77.9824 101.687 77.9558 101.78C77.9291 101.873 77.8624 101.96 77.7558 102.04C77.3424 102.387 76.8358 102.66 76.2358 102.86C75.6358 103.06 75.0224 103.16 74.3958 103.16ZM84.5245 103.16C83.6445 103.16 82.8779 102.953 82.2245 102.54C81.5845 102.127 81.0845 101.547 80.7245 100.8C80.3779 100.053 80.2045 99.1733 80.2045 98.16C80.2045 97.4 80.3045 96.7133 80.5045 96.1C80.7045 95.4867 80.9912 94.96 81.3645 94.52C81.7512 94.08 82.2112 93.7467 82.7445 93.52C83.2779 93.28 83.8712 93.16 84.5245 93.16C85.4045 93.16 86.1645 93.3667 86.8045 93.78C87.4579 94.1933 87.9579 94.7733 88.3045 95.52C88.6645 96.2667 88.8445 97.1467 88.8445 98.16C88.8445 98.92 88.7445 99.6067 88.5445 100.22C88.3445 100.833 88.0512 101.36 87.6645 101.8C87.2912 102.24 86.8379 102.58 86.3045 102.82C85.7845 103.047 85.1912 103.16 84.5245 103.16ZM84.5245 102.38C85.2312 102.38 85.8445 102.213 86.3645 101.88C86.8845 101.547 87.2845 101.067 87.5645 100.44C87.8445 99.8 87.9845 99.04 87.9845 98.16C87.9845 96.8267 87.6712 95.7933 87.0445 95.06C86.4312 94.3133 85.5912 93.94 84.5245 93.94C83.8179 93.94 83.2045 94.1067 82.6845 94.44C82.1645 94.7733 81.7645 95.2533 81.4845 95.88C81.2045 96.5067 81.0645 97.2667 81.0645 98.16C81.0645 99.4933 81.3779 100.533 82.0045 101.28C82.6312 102.013 83.4712 102.38 84.5245 102.38ZM92.0263 103.12C91.8929 103.12 91.7863 103.08 91.7063 103C91.6396 102.92 91.6063 102.813 91.6063 102.68V93.64C91.6063 93.4933 91.6396 93.3867 91.7063 93.32C91.7863 93.24 91.8929 93.2 92.0263 93.2C92.1596 93.2 92.2596 93.24 92.3263 93.32C92.3929 93.3867 92.4263 93.4933 92.4263 93.64V95.68H92.2063C92.4729 94.84 92.9329 94.2133 93.5863 93.8C94.2396 93.3733 94.9929 93.16 95.8463 93.16C96.6196 93.16 97.2596 93.2933 97.7663 93.56C98.2863 93.8267 98.6729 94.2333 98.9263 94.78C99.1796 95.3267 99.3063 96.0133 99.3063 96.84V102.68C99.3063 102.813 99.2663 102.92 99.1863 103C99.1196 103.08 99.0196 103.12 98.8863 103.12C98.7529 103.12 98.6463 103.08 98.5663 103C98.4996 102.92 98.4663 102.813 98.4663 102.68V96.92C98.4663 95.8933 98.2596 95.14 97.8463 94.66C97.4329 94.18 96.7663 93.94 95.8463 93.94C94.8196 93.94 93.9929 94.26 93.3663 94.9C92.7529 95.5267 92.4463 96.3733 92.4463 97.44V102.68C92.4463 102.973 92.3063 103.12 92.0263 103.12ZM108.243 103.12C108.123 103.12 108.023 103.08 107.943 103C107.876 102.92 107.843 102.813 107.843 102.68V89.22C107.843 89.0733 107.876 88.9667 107.943 88.9C108.009 88.82 108.096 88.78 108.203 88.78C108.323 88.78 108.416 88.8067 108.483 88.86C108.549 88.9133 108.609 88.9933 108.663 89.1L114.623 100.46H114.063L119.983 89.1C120.049 88.9933 120.109 88.9133 120.163 88.86C120.229 88.8067 120.323 88.78 120.443 88.78C120.549 88.78 120.636 88.82 120.703 88.9C120.769 88.9667 120.803 89.0733 120.803 89.22V102.68C120.803 102.813 120.769 102.92 120.703 103C120.636 103.08 120.543 103.12 120.423 103.12C120.289 103.12 120.189 103.08 120.123 103C120.056 102.92 120.023 102.813 120.023 102.68V89.7H120.503L114.803 100.6C114.749 100.707 114.689 100.787 114.623 100.84C114.569 100.893 114.483 100.92 114.363 100.92C114.243 100.92 114.149 100.893 114.083 100.84C114.016 100.773 113.956 100.693 113.903 100.6L108.123 89.68H108.623V102.68C108.623 102.813 108.589 102.92 108.523 103C108.456 103.08 108.363 103.12 108.243 103.12ZM127.378 103.16C126.751 103.16 126.184 103.033 125.678 102.78C125.171 102.527 124.771 102.187 124.478 101.76C124.184 101.32 124.038 100.833 124.038 100.3C124.038 99.58 124.211 99.02 124.558 98.62C124.918 98.2067 125.524 97.92 126.378 97.76C127.244 97.5867 128.431 97.5 129.938 97.5H130.758V98.24H129.978C128.658 98.24 127.631 98.3 126.898 98.42C126.178 98.5267 125.671 98.7267 125.378 99.02C125.098 99.3 124.958 99.7 124.958 100.22C124.958 100.86 125.178 101.387 125.618 101.8C126.071 102.2 126.678 102.4 127.438 102.4C128.051 102.4 128.584 102.253 129.038 101.96C129.504 101.653 129.871 101.247 130.138 100.74C130.404 100.22 130.538 99.6333 130.538 98.98V96.7C130.538 95.74 130.351 95.04 129.978 94.6C129.604 94.16 129.004 93.94 128.178 93.94C127.644 93.94 127.131 94.0133 126.638 94.16C126.158 94.3067 125.651 94.5333 125.118 94.84C124.998 94.9067 124.891 94.9333 124.798 94.92C124.718 94.9067 124.651 94.8733 124.598 94.82C124.544 94.7533 124.504 94.68 124.478 94.6C124.464 94.5067 124.471 94.42 124.498 94.34C124.538 94.26 124.604 94.1933 124.698 94.14C125.244 93.8067 125.811 93.56 126.398 93.4C126.984 93.24 127.564 93.16 128.138 93.16C128.871 93.16 129.478 93.2867 129.958 93.54C130.438 93.7933 130.791 94.18 131.018 94.7C131.258 95.22 131.378 95.8867 131.378 96.7V102.68C131.378 102.813 131.344 102.92 131.278 103C131.211 103.08 131.111 103.12 130.978 103.12C130.844 103.12 130.738 103.08 130.658 103C130.591 102.92 130.558 102.813 130.558 102.68V100.58H130.778C130.644 101.113 130.418 101.573 130.098 101.96C129.778 102.347 129.384 102.647 128.918 102.86C128.464 103.06 127.951 103.16 127.378 103.16ZM138.831 106.76C138.125 106.76 137.431 106.66 136.751 106.46C136.085 106.26 135.478 105.947 134.931 105.52C134.865 105.467 134.818 105.4 134.791 105.32C134.778 105.24 134.785 105.16 134.811 105.08C134.838 105.013 134.878 104.947 134.931 104.88C134.998 104.827 135.065 104.793 135.131 104.78C135.211 104.78 135.291 104.807 135.371 104.86C135.958 105.273 136.518 105.56 137.051 105.72C137.598 105.893 138.198 105.98 138.851 105.98C139.851 105.98 140.611 105.693 141.131 105.12C141.651 104.56 141.911 103.753 141.911 102.7V100.04H142.111C141.925 100.893 141.498 101.567 140.831 102.06C140.165 102.54 139.371 102.78 138.451 102.78C137.558 102.78 136.785 102.58 136.131 102.18C135.478 101.767 134.971 101.2 134.611 100.48C134.265 99.7467 134.091 98.9067 134.091 97.96C134.091 97.24 134.191 96.5867 134.391 96C134.591 95.4133 134.878 94.9133 135.251 94.5C135.638 94.0733 136.098 93.7467 136.631 93.52C137.165 93.28 137.771 93.16 138.451 93.16C139.371 93.16 140.165 93.4067 140.831 93.9C141.498 94.38 141.925 95.0467 142.111 95.9H141.891V93.64C141.891 93.4933 141.925 93.3867 141.991 93.32C142.071 93.24 142.178 93.2 142.311 93.2C142.445 93.2 142.545 93.24 142.611 93.32C142.691 93.3867 142.731 93.4933 142.731 93.64V102.56C142.731 103.947 142.405 104.993 141.751 105.7C141.098 106.407 140.125 106.76 138.831 106.76ZM138.431 102C139.151 102 139.771 101.833 140.291 101.5C140.811 101.167 141.211 100.7 141.491 100.1C141.771 99.4867 141.911 98.7733 141.911 97.96C141.911 96.7333 141.598 95.76 140.971 95.04C140.345 94.3067 139.498 93.94 138.431 93.94C137.725 93.94 137.105 94.1067 136.571 94.44C136.051 94.76 135.651 95.22 135.371 95.82C135.091 96.42 134.951 97.1333 134.951 97.96C134.951 99.1867 135.265 100.167 135.891 100.9C136.518 101.633 137.365 102 138.431 102ZM146.558 103.12C146.424 103.12 146.318 103.08 146.238 103C146.171 102.92 146.138 102.813 146.138 102.68V93.64C146.138 93.4933 146.171 93.3867 146.238 93.32C146.318 93.24 146.424 93.2 146.558 93.2C146.691 93.2 146.791 93.24 146.858 93.32C146.924 93.3867 146.958 93.4933 146.958 93.64V95.68H146.738C147.004 94.84 147.464 94.2133 148.118 93.8C148.771 93.3733 149.524 93.16 150.378 93.16C151.151 93.16 151.791 93.2933 152.298 93.56C152.818 93.8267 153.204 94.2333 153.458 94.78C153.711 95.3267 153.838 96.0133 153.838 96.84V102.68C153.838 102.813 153.798 102.92 153.718 103C153.651 103.08 153.551 103.12 153.418 103.12C153.284 103.12 153.178 103.08 153.098 103C153.031 102.92 152.998 102.813 152.998 102.68V96.92C152.998 95.8933 152.791 95.14 152.378 94.66C151.964 94.18 151.298 93.94 150.378 93.94C149.351 93.94 148.524 94.26 147.898 94.9C147.284 95.5267 146.978 96.3733 146.978 97.44V102.68C146.978 102.973 146.838 103.12 146.558 103.12ZM157.612 103.06C157.479 103.06 157.372 103.02 157.292 102.94C157.226 102.86 157.192 102.753 157.192 102.62V93.7C157.192 93.5533 157.226 93.4467 157.292 93.38C157.372 93.3 157.479 93.26 157.612 93.26C157.746 93.26 157.846 93.3 157.912 93.38C157.992 93.4467 158.032 93.5533 158.032 93.7V102.62C158.032 102.753 157.999 102.86 157.932 102.94C157.866 103.02 157.759 103.06 157.612 103.06ZM157.612 90.68C157.399 90.68 157.226 90.62 157.092 90.5C156.972 90.3667 156.912 90.1933 156.912 89.98C156.912 89.7533 156.972 89.5867 157.092 89.48C157.226 89.36 157.399 89.3 157.612 89.3C157.839 89.3 158.012 89.36 158.132 89.48C158.252 89.5867 158.312 89.7533 158.312 89.98C158.312 90.1933 158.252 90.3667 158.132 90.5C158.012 90.62 157.839 90.68 157.612 90.68ZM162.25 103.12C162.117 103.12 162.01 103.08 161.93 103C161.864 102.92 161.83 102.813 161.83 102.68V94.04H160.25C160.117 94.04 160.01 94.0067 159.93 93.94C159.85 93.8733 159.81 93.7867 159.81 93.68C159.81 93.5733 159.85 93.4867 159.93 93.42C160.01 93.3533 160.117 93.32 160.25 93.32H162.03L161.83 93.54V92.7C161.83 91.54 162.097 90.64 162.63 90C163.177 89.36 164.004 89 165.11 88.92L165.69 88.88C165.797 88.8667 165.884 88.8867 165.95 88.94C166.017 88.98 166.057 89.04 166.07 89.12C166.097 89.1867 166.097 89.26 166.07 89.34C166.057 89.42 166.024 89.4867 165.97 89.54C165.917 89.5933 165.85 89.62 165.77 89.62L165.09 89.66C164.237 89.7133 163.617 90.0067 163.23 90.54C162.857 91.06 162.67 91.78 162.67 92.7V93.6L162.51 93.32H167.85C167.984 93.32 168.084 93.36 168.15 93.44C168.23 93.5067 168.27 93.6133 168.27 93.76V102.62C168.27 102.753 168.237 102.86 168.17 102.94C168.104 103.02 167.997 103.06 167.85 103.06C167.717 103.06 167.61 103.02 167.53 102.94C167.464 102.86 167.43 102.753 167.43 102.62V94.04H162.67V102.68C162.67 102.973 162.53 103.12 162.25 103.12ZM167.85 90.68C167.637 90.68 167.464 90.62 167.33 90.5C167.21 90.3667 167.15 90.1933 167.15 89.98C167.15 89.7533 167.21 89.5867 167.33 89.48C167.464 89.36 167.637 89.3 167.85 89.3C168.077 89.3 168.25 89.36 168.37 89.48C168.49 89.5867 168.55 89.7533 168.55 89.98C168.55 90.1933 168.49 90.3667 168.37 90.5C168.25 90.62 168.077 90.68 167.85 90.68ZM175.445 103.16C174.525 103.16 173.732 102.947 173.065 102.52C172.412 102.093 171.905 101.5 171.545 100.74C171.198 99.98 171.025 99.0933 171.025 98.08C171.025 97.32 171.125 96.64 171.325 96.04C171.525 95.4267 171.812 94.9067 172.185 94.48C172.572 94.0533 173.038 93.7267 173.585 93.5C174.132 93.2733 174.752 93.16 175.445 93.16C175.952 93.16 176.465 93.2533 176.985 93.44C177.518 93.6133 177.992 93.9067 178.405 94.32C178.472 94.3867 178.505 94.46 178.505 94.54C178.518 94.62 178.505 94.7 178.465 94.78C178.438 94.8467 178.392 94.9 178.325 94.94C178.258 94.98 178.178 95 178.085 95C177.992 94.9867 177.898 94.9333 177.805 94.84C177.418 94.4933 177.018 94.26 176.605 94.14C176.205 94.0067 175.812 93.94 175.425 93.94C174.852 93.94 174.345 94.0333 173.905 94.22C173.465 94.4067 173.092 94.68 172.785 95.04C172.492 95.3867 172.265 95.82 172.105 96.34C171.958 96.8467 171.885 97.4333 171.885 98.1C171.885 99.4333 172.192 100.48 172.805 101.24C173.418 102 174.292 102.38 175.425 102.38C175.812 102.38 176.205 102.32 176.605 102.2C177.018 102.067 177.418 101.827 177.805 101.48C177.898 101.387 177.992 101.34 178.085 101.34C178.178 101.327 178.258 101.34 178.325 101.38C178.392 101.42 178.438 101.48 178.465 101.56C178.505 101.627 178.518 101.7 178.505 101.78C178.505 101.86 178.472 101.933 178.405 102C177.992 102.413 177.518 102.713 176.985 102.9C176.465 103.073 175.952 103.16 175.445 103.16ZM183.589 103.16C182.962 103.16 182.395 103.033 181.889 102.78C181.382 102.527 180.982 102.187 180.689 101.76C180.395 101.32 180.249 100.833 180.249 100.3C180.249 99.58 180.422 99.02 180.769 98.62C181.129 98.2067 181.735 97.92 182.589 97.76C183.455 97.5867 184.642 97.5 186.149 97.5H186.969V98.24H186.189C184.869 98.24 183.842 98.3 183.109 98.42C182.389 98.5267 181.882 98.7267 181.589 99.02C181.309 99.3 181.169 99.7 181.169 100.22C181.169 100.86 181.389 101.387 181.829 101.8C182.282 102.2 182.889 102.4 183.649 102.4C184.262 102.4 184.795 102.253 185.249 101.96C185.715 101.653 186.082 101.247 186.349 100.74C186.615 100.22 186.749 99.6333 186.749 98.98V96.7C186.749 95.74 186.562 95.04 186.189 94.6C185.815 94.16 185.215 93.94 184.389 93.94C183.855 93.94 183.342 94.0133 182.849 94.16C182.369 94.3067 181.862 94.5333 181.329 94.84C181.209 94.9067 181.102 94.9333 181.009 94.92C180.929 94.9067 180.862 94.8733 180.809 94.82C180.755 94.7533 180.715 94.68 180.689 94.6C180.675 94.5067 180.682 94.42 180.709 94.34C180.749 94.26 180.815 94.1933 180.909 94.14C181.455 93.8067 182.022 93.56 182.609 93.4C183.195 93.24 183.775 93.16 184.349 93.16C185.082 93.16 185.689 93.2867 186.169 93.54C186.649 93.7933 187.002 94.18 187.229 94.7C187.469 95.22 187.589 95.8867 187.589 96.7V102.68C187.589 102.813 187.555 102.92 187.489 103C187.422 103.08 187.322 103.12 187.189 103.12C187.055 103.12 186.949 103.08 186.869 103C186.802 102.92 186.769 102.813 186.769 102.68V100.58H186.989C186.855 101.113 186.629 101.573 186.309 101.96C185.989 102.347 185.595 102.647 185.129 102.86C184.675 103.06 184.162 103.16 183.589 103.16ZM194.342 103.16C193.676 103.16 193.116 103.033 192.662 102.78C192.209 102.513 191.869 102.14 191.642 101.66C191.416 101.167 191.302 100.573 191.302 99.88V94.04H189.682C189.549 94.04 189.442 94.0067 189.362 93.94C189.282 93.8733 189.242 93.7867 189.242 93.68C189.242 93.5733 189.282 93.4867 189.362 93.42C189.442 93.3533 189.549 93.32 189.682 93.32H191.302V90.62C191.302 90.4733 191.336 90.3667 191.402 90.3C191.482 90.22 191.589 90.18 191.722 90.18C191.856 90.18 191.956 90.22 192.022 90.3C192.102 90.3667 192.142 90.4733 192.142 90.62V93.32H195.002C195.149 93.32 195.256 93.3533 195.322 93.42C195.402 93.4867 195.442 93.5733 195.442 93.68C195.442 93.7867 195.402 93.8733 195.322 93.94C195.256 94.0067 195.149 94.04 195.002 94.04H192.142V99.7C192.142 100.567 192.316 101.233 192.662 101.7C193.009 102.153 193.589 102.38 194.402 102.38C194.682 102.38 194.909 102.353 195.082 102.3C195.269 102.233 195.422 102.2 195.542 102.2C195.622 102.2 195.689 102.233 195.742 102.3C195.809 102.367 195.842 102.46 195.842 102.58C195.842 102.647 195.822 102.72 195.782 102.8C195.756 102.867 195.696 102.913 195.602 102.94C195.469 102.993 195.276 103.04 195.022 103.08C194.782 103.133 194.556 103.16 194.342 103.16ZM202.91 103.12C202.777 103.12 202.67 103.08 202.59 103C202.524 102.92 202.49 102.813 202.49 102.68V89.22C202.49 89.0733 202.524 88.9667 202.59 88.9C202.67 88.82 202.777 88.78 202.91 88.78C203.044 88.78 203.144 88.82 203.21 88.9C203.29 88.9667 203.33 89.0733 203.33 89.22V95.46H203.37L210.55 89.08C210.684 88.9733 210.804 88.9 210.91 88.86C211.017 88.8067 211.124 88.78 211.23 88.78C211.364 88.78 211.464 88.8067 211.53 88.86C211.597 88.9133 211.624 88.9867 211.61 89.08C211.597 89.16 211.537 89.2467 211.43 89.34L203.73 96.16L203.77 95.52L211.79 102.44C211.924 102.547 211.997 102.653 212.01 102.76C212.024 102.867 211.99 102.953 211.91 103.02C211.844 103.087 211.744 103.12 211.61 103.12C211.504 103.12 211.404 103.093 211.31 103.04C211.217 103 211.117 102.933 211.01 102.84L203.37 96.24H203.33V102.68C203.33 102.813 203.297 102.92 203.23 103C203.164 103.08 203.057 103.12 202.91 103.12ZM216.559 103.12C216.426 103.12 216.299 103.08 216.179 103C216.073 102.92 215.986 102.793 215.919 102.62L212.859 93.9C212.806 93.74 212.793 93.6133 212.819 93.52C212.846 93.4133 212.893 93.3333 212.959 93.28C213.039 93.2267 213.126 93.2 213.219 93.2C213.339 93.2 213.433 93.2267 213.499 93.28C213.566 93.3333 213.619 93.4267 213.659 93.56L216.799 102.74H216.279L219.519 93.7C219.586 93.5267 219.673 93.4 219.779 93.32C219.899 93.24 220.033 93.2 220.179 93.2C220.326 93.2 220.459 93.24 220.579 93.32C220.699 93.4 220.786 93.5267 220.839 93.7L223.999 102.74H223.479L226.699 93.56C226.753 93.4133 226.806 93.32 226.859 93.28C226.926 93.2267 227.026 93.2 227.159 93.2C227.293 93.2 227.386 93.2333 227.439 93.3C227.493 93.3667 227.519 93.4533 227.519 93.56C227.533 93.6667 227.519 93.78 227.479 93.9L224.379 102.62C224.326 102.793 224.239 102.92 224.119 103C224.013 103.08 223.893 103.12 223.759 103.12C223.626 103.12 223.499 103.08 223.379 103C223.273 102.92 223.186 102.793 223.119 102.62L219.879 93.46H220.499L217.199 102.62C217.146 102.793 217.059 102.92 216.939 103C216.833 103.08 216.706 103.12 216.559 103.12ZM230.581 103.06C230.448 103.06 230.341 103.02 230.261 102.94C230.194 102.86 230.161 102.753 230.161 102.62V93.7C230.161 93.5533 230.194 93.4467 230.261 93.38C230.341 93.3 230.448 93.26 230.581 93.26C230.714 93.26 230.814 93.3 230.881 93.38C230.961 93.4467 231.001 93.5533 231.001 93.7V102.62C231.001 102.753 230.968 102.86 230.901 102.94C230.834 103.02 230.728 103.06 230.581 103.06ZM230.581 90.68C230.368 90.68 230.194 90.62 230.061 90.5C229.941 90.3667 229.881 90.1933 229.881 89.98C229.881 89.7533 229.941 89.5867 230.061 89.48C230.194 89.36 230.368 89.3 230.581 89.3C230.808 89.3 230.981 89.36 231.101 89.48C231.221 89.5867 231.281 89.7533 231.281 89.98C231.281 90.1933 231.221 90.3667 231.101 90.5C230.981 90.62 230.808 90.68 230.581 90.68ZM234.239 103C234.133 103 234.046 102.98 233.979 102.94C233.926 102.9 233.886 102.847 233.859 102.78C233.833 102.7 233.833 102.613 233.859 102.52C233.886 102.427 233.939 102.333 234.019 102.24L240.079 93.78V94.04H234.159C234.039 94.04 233.946 94.0067 233.879 93.94C233.813 93.8733 233.779 93.7867 233.779 93.68C233.779 93.5733 233.813 93.4867 233.879 93.42C233.946 93.3533 234.039 93.32 234.159 93.32H240.499C240.619 93.32 240.713 93.34 240.779 93.38C240.859 93.42 240.913 93.4733 240.939 93.54C240.966 93.6067 240.966 93.6867 240.939 93.78C240.926 93.86 240.886 93.9467 240.819 94.04L234.699 102.56V102.28H240.859C241.113 102.28 241.239 102.4 241.239 102.64C241.239 102.747 241.206 102.833 241.139 102.9C241.073 102.967 240.979 103 240.859 103H234.239ZM247.306 103.16C246.346 103.16 245.519 102.96 244.826 102.56C244.133 102.16 243.593 101.593 243.206 100.86C242.833 100.113 242.646 99.2267 242.646 98.2C242.646 97.1867 242.833 96.3067 243.206 95.56C243.593 94.8 244.119 94.2133 244.786 93.8C245.466 93.3733 246.246 93.16 247.126 93.16C247.753 93.16 248.306 93.2667 248.786 93.48C249.279 93.6933 249.693 94 250.026 94.4C250.373 94.8 250.633 95.2867 250.806 95.86C250.993 96.4333 251.086 97.08 251.086 97.8C251.086 97.9733 251.046 98.1067 250.966 98.2C250.899 98.28 250.793 98.32 250.646 98.32H243.186V97.58H250.646L250.306 97.82C250.306 97.0067 250.186 96.3133 249.946 95.74C249.706 95.1533 249.346 94.7067 248.866 94.4C248.399 94.08 247.813 93.92 247.106 93.92C246.333 93.92 245.673 94.1067 245.126 94.48C244.593 94.84 244.186 95.3333 243.906 95.96C243.639 96.5867 243.506 97.3 243.506 98.1V98.2C243.506 99.5333 243.833 100.567 244.486 101.3C245.153 102.02 246.079 102.38 247.266 102.38C247.799 102.38 248.299 102.313 248.766 102.18C249.233 102.033 249.693 101.78 250.146 101.42C250.239 101.34 250.333 101.3 250.426 101.3C250.533 101.287 250.619 101.307 250.686 101.36C250.766 101.4 250.819 101.46 250.846 101.54C250.886 101.607 250.893 101.687 250.866 101.78C250.839 101.873 250.773 101.96 250.666 102.04C250.253 102.387 249.746 102.66 249.146 102.86C248.546 103.06 247.933 103.16 247.306 103.16ZM254.175 103.12C254.041 103.12 253.935 103.08 253.855 103C253.788 102.92 253.755 102.813 253.755 102.68V93.64C253.755 93.4933 253.788 93.3867 253.855 93.32C253.935 93.24 254.041 93.2 254.175 93.2C254.308 93.2 254.408 93.24 254.475 93.32C254.541 93.3867 254.575 93.4933 254.575 93.64V95.58H254.375C254.628 94.7933 255.075 94.1867 255.715 93.76C256.368 93.3333 257.121 93.12 257.975 93.12C258.095 93.12 258.195 93.1467 258.275 93.2C258.368 93.24 258.415 93.3267 258.415 93.46C258.415 93.5933 258.381 93.7 258.315 93.78C258.248 93.8467 258.135 93.8867 257.975 93.9L257.735 93.92C256.748 94.0133 255.975 94.3467 255.415 94.92C254.868 95.4933 254.595 96.2533 254.595 97.2V102.68C254.595 102.813 254.561 102.92 254.495 103C254.428 103.08 254.321 103.12 254.175 103.12ZM263.12 103.16C262.493 103.16 261.927 103.033 261.42 102.78C260.913 102.527 260.513 102.187 260.22 101.76C259.927 101.32 259.78 100.833 259.78 100.3C259.78 99.58 259.953 99.02 260.3 98.62C260.66 98.2067 261.267 97.92 262.12 97.76C262.987 97.5867 264.173 97.5 265.68 97.5H266.5V98.24H265.72C264.4 98.24 263.373 98.3 262.64 98.42C261.92 98.5267 261.413 98.7267 261.12 99.02C260.84 99.3 260.7 99.7 260.7 100.22C260.7 100.86 260.92 101.387 261.36 101.8C261.813 102.2 262.42 102.4 263.18 102.4C263.793 102.4 264.327 102.253 264.78 101.96C265.247 101.653 265.613 101.247 265.88 100.74C266.147 100.22 266.28 99.6333 266.28 98.98V96.7C266.28 95.74 266.093 95.04 265.72 94.6C265.347 94.16 264.747 93.94 263.92 93.94C263.387 93.94 262.873 94.0133 262.38 94.16C261.9 94.3067 261.393 94.5333 260.86 94.84C260.74 94.9067 260.633 94.9333 260.54 94.92C260.46 94.9067 260.393 94.8733 260.34 94.82C260.287 94.7533 260.247 94.68 260.22 94.6C260.207 94.5067 260.213 94.42 260.24 94.34C260.28 94.26 260.347 94.1933 260.44 94.14C260.987 93.8067 261.553 93.56 262.14 93.4C262.727 93.24 263.307 93.16 263.88 93.16C264.613 93.16 265.22 93.2867 265.7 93.54C266.18 93.7933 266.533 94.18 266.76 94.7C267 95.22 267.12 95.8867 267.12 96.7V102.68C267.12 102.813 267.087 102.92 267.02 103C266.953 103.08 266.853 103.12 266.72 103.12C266.587 103.12 266.48 103.08 266.4 103C266.333 102.92 266.3 102.813 266.3 102.68V100.58H266.52C266.387 101.113 266.16 101.573 265.84 101.96C265.52 102.347 265.127 102.647 264.66 102.86C264.207 103.06 263.693 103.16 263.12 103.16Z" fill="#181616"/>
<circle cx="163.5" cy="40.7444" r="36.5" fill="black"/>
<line x1="175" y1="-4.37114e-08" x2="175" y2="64.8889" stroke="#E6DFD3" stroke-width="2"/>
<path d="M200 65.344C200.552 65.344 201 64.8963 201 64.344C201 63.7917 200.552 63.344 200 63.344V65.344ZM200 63.344H174.044V65.344H200V63.344Z" fill="#E6DFD3"/>
</svg>
