<svg width="50" height="50" viewBox="0 0 50 50" fill="none" xmlns="http://www.w3.org/2000/svg">
<path d="M49.6094 1.28906C49.6094 0.46875 49.6094 0.390625 48.8281 0.390625H1.36719C0.585938 0.390625 0.390625 0.46875 0.390625 1.25V48.7109C0.390625 49.4922 0.507813 49.4922 1.25 49.4922H48.8281C49.4531 49.4922 49.6094 49.3359 49.6094 48.7109C49.5703 40.8203 49.6094 32.8906 49.6094 25V1.28906ZM22.9297 36.7188L19.1406 28.2031L15.1562 36.7188H10.7813L16.4453 25.2734L11.1719 13.1641L15.6641 13.2031L18.9844 21.1328L23.0469 13.1641H27.2656L21.5625 24.6484L27.2266 36.7188H22.9297ZM39.9609 13.5937V35.7031C39.9609 36.2891 39.8828 36.6406 39.2969 36.6797C36.5625 37.0313 33.8281 37.4219 31.1328 36.6406C28.2031 35.8203 26.5234 33.5156 26.4062 30.3516C26.25 26.4453 27.7344 23.75 30.625 22.5C32.4219 21.7187 34.2578 21.6797 36.3281 21.875V13.2031H39.9609V13.5937ZM32.3438 33.6719C33.6328 34.0234 34.9219 33.9062 36.25 33.6719V25.8594C36.25 25.7422 36.0937 25.5078 35.9766 25.4687C34.5312 25.2344 33.0469 25.2344 31.6797 25.9766C30.2734 26.7578 29.5312 28.3984 29.6875 30.3125C29.8047 32.0703 30.7422 33.2031 32.3438 33.6719V33.6719Z" fill="#29382B"/>
</svg>
